<?xml version="1.0" encoding="UTF-8" standalone="no"?> <!-- Created with Vectornator for iOS (http://vectornator.io/) --><!DOCTYPE svg PUBLIC "-//W3C//DTD SVG 1.1//EN" "http://www.w3.org/Graphics/SVG/1.1/DTD/svg11.dtd">
<svg height="100%" style="fill-rule:nonzero;clip-rule:evenodd;stroke-linecap:round;stroke-linejoin:round;" xmlns:xlink="http://www.w3.org/1999/xlink" xmlns="http://www.w3.org/2000/svg" xml:space="preserve" width="100%" xmlns:vectornator="http://vectornator.io" version="1.1" viewBox="0 0 40 40">
<metadata>
<vectornator:setting key="DimensionsVisible" value="1"/>
<vectornator:setting key="PencilOnly" value="0"/>
<vectornator:setting key="SnapToPoints" value="0"/>
<vectornator:setting key="OutlineMode" value="0"/>
<vectornator:setting key="CMYKEnabledKey" value="0"/>
<vectornator:setting key="RulersVisible" value="1"/>
<vectornator:setting key="SnapToEdges" value="0"/>
<vectornator:setting key="GuidesVisible" value="1"/>
<vectornator:setting key="DisplayWhiteBackground" value="0"/>
<vectornator:setting key="doHistoryDisabled" value="0"/>
<vectornator:setting key="SnapToGuides" value="1"/>
<vectornator:setting key="TimeLapseWatermarkDisabled" value="0"/>
<vectornator:setting key="Units" value="Points"/>
<vectornator:setting key="DynamicGuides" value="0"/>
<vectornator:setting key="IsolateActiveLayer" value="0"/>
<vectornator:setting key="SnapToGrid" value="0"/>
</metadata>
<defs/>
<g id="レイヤー 1" vectornator:layerName="レイヤー 1">
<g opacity="1">
<path d="M21.0806+19.0561L37.4186+19.0561C37.4186+20.7361+37.3486+22.2621+37.2086+23.6341C37.0686+25.0061+36.7886+26.2801+36.3686+27.4561C35.7806+29.1081+34.9826+30.5711+33.9746+31.8451C32.9666+33.1191+31.7836+34.1831+30.4256+35.0371C29.0676+35.8911+27.5766+36.5421+25.9526+36.9901C24.3286+37.4381+22.6206+37.6621+20.8286+37.6621C18.3646+37.6621+16.1176+37.2561+14.0876+36.4441C12.0576+35.6321+10.3146+34.4911+8.85858+33.0211C7.40258+31.5511+6.26858+29.7871+5.45658+27.7291C4.64458+25.6711+4.23858+23.3961+4.23858+20.9041C4.23858+18.4401+4.63758+16.1791+5.43558+14.1211C6.23358+12.0631+7.36758+10.3061+8.83758+8.85007C10.3076+7.39407+12.0786+6.26007+14.1506+5.44807C16.2226+4.63607+18.5326+4.23007+21.0806+4.23007C24.3846+4.23007+27.2826+4.94407+29.7746+6.37207C32.2666+7.80007+34.2406+10.0121+35.6966+13.0081L27.8846+16.2421C27.1566+14.5061+26.2116+13.2601+25.0496+12.5041C23.8876+11.7481+22.5646+11.3701+21.0806+11.3701C19.8486+11.3701+18.7286+11.6011+17.7206+12.0631C16.7126+12.5251+15.8516+13.1831+15.1376+14.0371C14.4236+14.8911+13.8636+15.9201+13.4576+17.1241C13.0516+18.3281+12.8486+19.6721+12.8486+21.1561C12.8486+22.5001+13.0236+23.7461+13.3736+24.8941C13.7236+26.0421+14.2486+27.0361+14.9486+27.8761C15.6486+28.7161+16.5166+29.3671+17.5526+29.8291C18.5886+30.2911+19.7926+30.5221+21.1646+30.5221C21.9766+30.5221+22.7606+30.4311+23.5166+30.2491C24.2726+30.0671+24.9516+29.7731+25.5536+29.3671C26.1556+28.9611+26.6526+28.4361+27.0446+27.7921C27.4366+27.1481+27.7026+26.3641+27.8426+25.4401L21.0806+25.4401L21.0806+19.0561Z" opacity="1" fill="#a71616"/>
</g>
<g opacity="1">
<path d="M20.4186+18.3033L36.7566+18.3033C36.7566+19.9833+36.6866+21.5093+36.5466+22.8813C36.4066+24.2533+36.1266+25.5273+35.7066+26.7033C35.1186+28.3553+34.3206+29.8183+33.3126+31.0923C32.3046+32.3663+31.1216+33.4303+29.7636+34.2843C28.4056+35.1383+26.9146+35.7893+25.2906+36.2373C23.6666+36.6853+21.9586+36.9093+20.1666+36.9093C17.7026+36.9093+15.4556+36.5033+13.4256+35.6913C11.3956+34.8793+9.6526+33.7383+8.1966+32.2683C6.7406+30.7983+5.6066+29.0343+4.7946+26.9763C3.9826+24.9183+3.5766+22.6433+3.5766+20.1513C3.5766+17.6873+3.9756+15.4263+4.7736+13.3683C5.5716+11.3103+6.7056+9.55328+8.1756+8.09728C9.6456+6.64128+11.4166+5.50728+13.4886+4.69528C15.5606+3.88328+17.8706+3.47728+20.4186+3.47728C23.7226+3.47728+26.6206+4.19128+29.1126+5.61928C31.6046+7.04728+33.5786+9.25928+35.0346+12.2553L27.2226+15.4893C26.4946+13.7533+25.5496+12.5073+24.3876+11.7513C23.2256+10.9953+21.9026+10.6173+20.4186+10.6173C19.1866+10.6173+18.0666+10.8483+17.0586+11.3103C16.0506+11.7723+15.1896+12.4303+14.4756+13.2843C13.7616+14.1383+13.2016+15.1673+12.7956+16.3713C12.3896+17.5753+12.1866+18.9193+12.1866+20.4033C12.1866+21.7473+12.3616+22.9933+12.7116+24.1413C13.0616+25.2893+13.5866+26.2833+14.2866+27.1233C14.9866+27.9633+15.8546+28.6143+16.8906+29.0763C17.9266+29.5383+19.1306+29.7693+20.5026+29.7693C21.3146+29.7693+22.0986+29.6783+22.8546+29.4963C23.6106+29.3143+24.2896+29.0203+24.8916+28.6143C25.4936+28.2083+25.9906+27.6833+26.3826+27.0393C26.7746+26.3953+27.0406+25.6113+27.1806+24.6873L20.4186+24.6873L20.4186+18.3033Z" opacity="1" fill="#ff0000"/>
</g>
</g>
</svg>
