<?xml version="1.0" encoding="UTF-8" standalone="no"?> <!-- Created with Vectornator for iOS (http://vectornator.io/) --><!DOCTYPE svg PUBLIC "-//W3C//DTD SVG 1.1//EN" "http://www.w3.org/Graphics/SVG/1.1/DTD/svg11.dtd">
<svg height="100%" style="fill-rule:nonzero;clip-rule:evenodd;stroke-linecap:round;stroke-linejoin:round;" xmlns:xlink="http://www.w3.org/1999/xlink" xmlns="http://www.w3.org/2000/svg" xml:space="preserve" width="100%" xmlns:vectornator="http://vectornator.io" version="1.1" viewBox="0 0 180 36">
<metadata>
<vectornator:setting key="DimensionsVisible" value="1"/>
<vectornator:setting key="PencilOnly" value="0"/>
<vectornator:setting key="SnapToPoints" value="0"/>
<vectornator:setting key="OutlineMode" value="0"/>
<vectornator:setting key="CMYKEnabledKey" value="0"/>
<vectornator:setting key="RulersVisible" value="1"/>
<vectornator:setting key="SnapToEdges" value="0"/>
<vectornator:setting key="GuidesVisible" value="1"/>
<vectornator:setting key="DisplayWhiteBackground" value="0"/>
<vectornator:setting key="doHistoryDisabled" value="0"/>
<vectornator:setting key="SnapToGuides" value="1"/>
<vectornator:setting key="TimeLapseWatermarkDisabled" value="0"/>
<vectornator:setting key="Units" value="Points"/>
<vectornator:setting key="DynamicGuides" value="0"/>
<vectornator:setting key="IsolateActiveLayer" value="0"/>
<vectornator:setting key="SnapToGrid" value="0"/>
</metadata>
<defs/>
<g id="レイヤー 1" vectornator:layerName="レイヤー 1">
<g opacity="1"/>
<g opacity="1">
<path d="M52.2582+7.76847L52.2582+11.8645L54.2742+11.8645L54.2742+7.76847L52.2582+7.76847ZM55.2022+11.8645L57.1862+11.8645L57.1862+7.76847L55.2022+7.76847L55.2022+11.8645ZM53.3782+31.9605L53.3782+28.5045L48.7702+28.5045C45.7622+28.5045+45.1222+28.2485+45.1222+25.8485L45.1222+17.1445L54.5622+16.3445L54.2742+12.8885L45.1222+13.6885L45.1222+8.02447L41.6662+8.02447L41.6662+25.8485C41.6662+30.8405+43.4902+31.9605+48.2582+31.9605L53.3782+31.9605Z" opacity="1" fill="#f11111"/>
<path d="M64.4963+12.4085L64.4963+18.7765L67.9523+18.7765L67.9523+12.4085L64.4963+12.4085ZM72.7203+12.4085L69.2643+12.4085L69.2643+18.7765L72.7203+18.7765L72.7203+12.4085ZM69.9683+31.9605C75.6003+27.0005+77.9683+21.4005+77.9683+16.2485L74.5443+16.2485C74.2883+20.0565+73.3283+24.5045+67.5363+29.4965L69.9683+31.9605Z" opacity="1" fill="#f11111"/>
<path d="M100.062+8.53647L100.062+4.44047L98.0785+4.44047L98.0785+8.53647L100.062+8.53647ZM100.99+8.53647L102.974+8.53647L102.974+4.44047L100.99+4.44047L100.99+8.53647ZM90.2385+8.08847C90.2385+12.4085+89.4065+16.0245+87.1345+19.0005L89.9185+21.0165C91.6465+18.8405+92.7025+16.2165+93.2465+13.2725L97.5345+13.2725L97.5345+19.1605C97.5345+24.6965+95.2305+27.3525+90.7505+28.8245L92.1905+31.9605C96.8305+30.5845+100.99+26.8725+100.99+19.1605L100.99+9.81647L93.6625+9.81647C93.6945+9.24047+93.6945+8.66447+93.6945+8.08847L90.2385+8.08847Z" opacity="1" fill="#f11111"/>
<path d="M124.653+10.2645L124.653+6.16847L122.669+6.16847L122.669+10.2645L124.653+10.2645ZM125.581+10.2645L127.565+10.2645L127.565+6.16847L125.581+6.16847L125.581+10.2645ZM112.845+8.08847C112.845+12.4085+111.981+16.0245+109.709+19.0005L112.525+21.0165C113.901+19.2885+114.861+17.2405+115.469+15.0005L119.693+15.0005L119.693+19.1605C119.693+24.6965+117.389+27.3525+112.909+28.8245L114.381+31.9605C118.989+30.5845+123.149+26.8725+123.149+19.1605L123.149+15.0005L125.581+15.0005L125.581+11.5445L116.109+11.5445C116.237+10.4245+116.301+9.27247+116.301+8.08847L112.845+8.08847Z" opacity="1" fill="#f11111"/>
<path d="M133.883+21.9125L147.195+21.9125L147.195+18.4245L133.883+18.4245L133.883+21.9125Z" opacity="1" fill="#f11111"/>
<path d="M166.921+25.4325L160.521+26.3605L164.585+9.81647L161.033+9.81647L155.945+30.4885L167.721+28.8245L168.457+31.9605L171.849+31.1605L169.385+20.8565L166.025+21.6565L166.921+25.4325Z" opacity="1" fill="#f11111"/>
</g>
<path d="M7.46433+18.7763C7.46433+10.8034+13.8028+4.33998+21.6217+4.33998C29.4407+4.33998+35.7791+10.8034+35.7791+18.7763C35.7791+26.7493+29.4407+33.2127+21.6217+33.2127C13.8028+33.2127+7.46433+26.7493+7.46433+18.7763Z" opacity="1" fill="#f11111"/>
<g opacity="1">
<path d="M22.5352+18.3619L33.8162+18.3619C33.8162+19.5219+33.7679+20.5756+33.6712+21.5229C33.5745+22.4702+33.3812+23.3499+33.0912+24.1619C32.6852+25.3026+32.1342+26.3127+31.4382+27.1924C30.7422+28.0721+29.9254+28.8067+28.9877+29.3964C28.05+29.9861+27.0205+30.4356+25.8992+30.7449C24.7779+31.0542+23.5985+31.2089+22.3612+31.2089C20.6599+31.2089+19.1084+30.9286+17.7067+30.3679C16.305+29.8072+15.1015+29.0194+14.0962+28.0044C13.0909+26.9894+12.3079+25.7714+11.7472+24.3504C11.1865+22.9294+10.9062+21.3586+10.9062+19.6379C10.9062+17.9366+11.1817+16.3754+11.7327+14.9544C12.2837+13.5334+13.0667+12.3202+14.0817+11.3149C15.0967+10.3096+16.3195+9.52658+17.7502+8.96592C19.1809+8.40525+20.7759+8.12492+22.5352+8.12492C24.8165+8.12492+26.8175+8.61792+28.5382+9.60392C30.2589+10.5899+31.6219+12.1172+32.6272+14.1859L27.2332+16.4189C26.7305+15.2202+26.078+14.3599+25.2757+13.8379C24.4734+13.3159+23.5599+13.0549+22.5352+13.0549C21.6845+13.0549+20.9112+13.2144+20.2152+13.5334C19.5192+13.8524+18.9247+14.3067+18.4317+14.8964C17.9387+15.4861+17.552+16.1966+17.2717+17.0279C16.9914+17.8592+16.8512+18.7872+16.8512+19.8119C16.8512+20.7399+16.972+21.6002+17.2137+22.3929C17.4554+23.1856+17.8179+23.8719+18.3012+24.4519C18.7845+25.0319+19.3839+25.4814+20.0992+25.8004C20.8145+26.1194+21.6459+26.2789+22.5932+26.2789C23.1539+26.2789+23.6952+26.2161+24.2172+26.0904C24.7392+25.9647+25.208+25.7617+25.6237+25.4814C26.0394+25.2011+26.3825+24.8386+26.6532+24.3939C26.9239+23.9492+27.1075+23.4079+27.2042+22.7699L22.5352+22.7699L22.5352+18.3619Z" opacity="1" fill="#a71616"/>
</g>
<g opacity="1">
<path d="M22.0685+17.6286L33.3495+17.6286C33.3495+18.7886+33.3012+19.8422+33.2045+20.7896C33.1078+21.7369+32.9145+22.6166+32.6245+23.4286C32.2185+24.5692+31.6675+25.5794+30.9715+26.4591C30.2755+27.3387+29.4587+28.0734+28.521+28.6631C27.5833+29.2527+26.5538+29.7022+25.4325+30.0116C24.3112+30.3209+23.1318+30.4756+21.8945+30.4756C20.1932+30.4756+18.6417+30.1952+17.24+29.6346C15.8383+29.0739+14.6348+28.2861+13.6295+27.2711C12.6242+26.2561+11.8412+25.0381+11.2805+23.6171C10.7198+22.1961+10.4395+20.6252+10.4395+18.9046C10.4395+17.2032+10.715+15.6421+11.266+14.2211C11.817+12.8001+12.6+11.5869+13.615+10.5816C14.63+9.57623+15.8528+8.79323+17.2835+8.23256C18.7142+7.67189+20.3092+7.39156+22.0685+7.39156C24.3498+7.39156+26.3508+7.88456+28.0715+8.87056C29.7922+9.85656+31.1552+11.3839+32.1605+13.4526L26.7665+15.6856C26.2638+14.4869+25.6113+13.6266+24.809+13.1046C24.0067+12.5826+23.0932+12.3216+22.0685+12.3216C21.2178+12.3216+20.4445+12.4811+19.7485+12.8001C19.0525+13.1191+18.458+13.5734+17.965+14.1631C17.472+14.7527+17.0853+15.4632+16.805+16.2946C16.5247+17.1259+16.3845+18.0539+16.3845+19.0786C16.3845+20.0066+16.5053+20.8669+16.747+21.6596C16.9887+22.4522+17.3512+23.1386+17.8345+23.7186C18.3178+24.2986+18.9172+24.7481+19.6325+25.0671C20.3478+25.3861+21.1792+25.5456+22.1265+25.5456C22.6872+25.5456+23.2285+25.4827+23.7505+25.3571C24.2725+25.2314+24.7413+25.0284+25.157+24.7481C25.5727+24.4677+25.9158+24.1052+26.1865+23.6606C26.4572+23.2159+26.6408+22.6746+26.7375+22.0366L22.0685+22.0366L22.0685+17.6286Z" opacity="1" fill="#ffffff"/>
</g>
</g>
</svg>
