<svg width="512" height="512.001" xmlns="http://www.w3.org/2000/svg">

 <g>
  <title>background</title>
  <rect fill="none" id="canvas_background" height="514.001" width="514" y="-1" x="-1"/>
 </g>
 <g>
  <title>Layer 1</title>
  <path fill="#000" id="svg_1" d="m210.351563,246.632813c33.882813,0 63.21875,-12.152344 87.195313,-36.128906c23.96875,-23.972656 36.125,-53.304688 36.125,-87.191406c0,-33.875 -12.152344,-63.210941 -36.128906,-87.19141c-23.976563,-23.96875 -53.3125,-36.12109 -87.191406,-36.12109c-33.886719,0 -63.21875,12.15234 -87.191406,36.125s-36.128906,53.308594 -36.128906,87.1875c0,33.886719 12.15625,63.222656 36.128906,87.195313c23.980469,23.96875 53.316406,36.125 87.191406,36.125zm-65.972656,-189.292973c18.394531,-18.394531 39.972656,-27.33593 65.972656,-27.33593c25.996094,0 47.578125,8.941399 65.976563,27.33593c18.394531,18.398441 27.339844,39.980473 27.339844,65.97266c0,26 -8.945313,47.578125 -27.339844,65.976563c-18.398438,18.398438 -39.980469,27.339844 -65.976563,27.339844c-25.992188,0 -47.570313,-8.945313 -65.972656,-27.339844c-18.398438,-18.394531 -27.34375,-39.976563 -27.34375,-65.976563c0,-25.992188 8.945313,-47.574219 27.34375,-65.97266z"/>
  <path id="svg_2" d="m426.128906,393.703125c-0.691406,-9.976563 -2.089844,-20.859375 -4.148438,-32.351563c-2.078125,-11.578125 -4.753906,-22.523438 -7.957031,-32.527344c-3.3125,-10.339844 -7.808594,-20.550781 -13.375,-30.335938c-5.769531,-10.15625 -12.550781,-19 -20.160156,-26.277344c-7.957031,-7.613281 -17.699219,-13.734375 -28.964844,-18.199219c-11.226563,-4.441406 -23.667969,-6.691406 -36.976563,-6.691406c-5.226563,0 -10.28125,2.144531 -20.042969,8.5c-6.007813,3.917969 -13.035156,8.449219 -20.878906,13.460938c-6.707031,4.273438 -15.792969,8.277344 -27.015625,11.902344c-10.949219,3.542969 -22.066406,5.339844 -33.042969,5.339844c-10.96875,0 -22.085938,-1.796875 -33.042969,-5.339844c-11.210938,-3.621094 -20.300781,-7.625 -26.996094,-11.898438c-7.769531,-4.964844 -14.800781,-9.496094 -20.898438,-13.46875c-9.753906,-6.355469 -14.808594,-8.5 -20.035156,-8.5c-13.3125,0 -25.75,2.253906 -36.972656,6.699219c-11.257813,4.457031 -21.003902,10.578125 -28.968754,18.199219c-7.609371,7.28125 -14.390621,16.121094 -20.15625,26.273438c-5.55859,9.785156 -10.05859,19.992188 -13.37109,30.339844c-3.19922,10.003906 -5.875,20.945313 -7.95312,32.523438c-2.0625,11.476563 -3.45704,22.363281 -4.14844,32.363281c-0.67969,9.777344 -1.02344,19.953125 -1.02344,30.234375c0,26.726563 8.49609,48.363281 25.25,64.320313c16.546879,15.746094 38.4375,23.730469 65.066406,23.730469l246.53125,0c26.621094,0 48.511719,-7.984375 65.0625,-23.730469c16.757813,-15.945313 25.253906,-37.589844 25.253906,-64.324219c-0.003906,-10.316406 -0.351563,-20.492188 -1.035156,-30.242188zm-44.90625,72.828125c-10.933594,10.40625 -25.449219,15.464844 -44.378906,15.464844l-246.527344,0c-18.933594,0 -33.449215,-5.058594 -44.378906,-15.460938c-10.72266,-10.207031 -15.93359,-24.140625 -15.93359,-42.585938c0,-9.59375 0.316401,-19.066406 0.949221,-28.160156c0.61718,-8.921875 1.878901,-18.722656 3.749998,-29.136719c1.847652,-10.285156 4.199211,-19.9375 6.99609,-28.675781c2.68359,-8.378906 6.34375,-16.675781 10.882813,-24.667969c4.332027,-7.617188 9.31641,-14.152344 14.816406,-19.417969c5.144531,-4.925781 11.628914,-8.957031 19.269531,-11.980469c7.066414,-2.796875 15.007813,-4.328125 23.628914,-4.558594c1.050774,0.558594 2.921867,1.625 5.953117,3.601563c6.167969,4.019531 13.277344,8.605469 21.136719,13.625c8.859375,5.648438 20.273438,10.75 33.910156,15.152344c13.941406,4.507813 28.160156,6.796875 42.273438,6.796875c14.113281,0 28.335938,-2.289063 42.269531,-6.792969c13.648438,-4.410156 25.058594,-9.507813 33.929688,-15.164063c8.042969,-5.140625 14.953125,-9.59375 21.121094,-13.617188c3.03125,-1.972656 4.902344,-3.042969 5.953125,-3.601563c8.625,0.230469 16.566406,1.761719 23.636719,4.558594c7.636719,3.023438 14.121094,7.058594 19.265625,11.980469c5.5,5.261719 10.484375,11.796875 14.816406,19.421875c4.542969,7.988281 8.207031,16.289063 10.886719,24.660156c2.800781,8.75 5.15625,18.398438 7,28.675781c1.867188,10.433594 3.132813,20.238281 3.75,29.144531l0,0.007813c0.636719,9.058594 0.957031,18.527344 0.960938,28.148438c-0.003906,18.449219 -5.214844,32.378906 -15.9375,42.582031zm0,0"/>
  <path d="m26.858765,102.136238c0,1.772858 -0.381603,4.550034 0.886427,7.977844c1.37537,3.717979 2.953556,6.408295 4.432131,9.750687c1.292976,2.922836 2.975945,5.543762 5.318558,10.637123c2.159779,4.695831 5.239079,5.405701 7.091412,11.523544c0.256874,0.848389 0.299152,3.820511 1.772854,6.204987c0.659054,1.06636 0.547207,2.726746 0.886429,3.5457c0.479729,1.158173 0.886425,1.772858 0.886425,2.659271c0,0 0,0 0,0c0,0.886429 0,0.886429 0,0.886429l0,-0.886429l-0.886425,-0.886414" id="svg_3" fill-opacity="null" stroke-opacity="null" stroke-width="null" stroke="null" fill="none"/>
  <ellipse ry="94.593067" rx="94.847629" id="svg_11" cy="123.155914" cx="210.349037" stroke-width="null" fill="#ffffff"/>
  <path id="svg_16" d="m143.86705,376.928436" opacity="0.5" fill-opacity="null" stroke-opacity="null" stroke-width="null" stroke="#000" fill="none"/>
  <path id="svg_18" d="m140.32135,369.837036" opacity="0.5" fill-opacity="null" stroke-opacity="null" stroke-width="null" stroke="#000" fill="none"/>
  <path id="svg_19" d="m107.523567,277.648682l-19.767349,3.34848l-21.274239,11.52356l-18.614952,26.592804l-12.409969,39.88916l-5.31856,36.343506l0,39.889191l3.545706,14.1828l9.75069,15.069275l16.842102,13.296387l32.797779,5.318542l59.390572,-1.772827l61.163422,0l107.257584,0l21.274231,0.886414l16.842102,-3.545715l15.069275,-7.0914l11.523529,-8.864258l7.0914,-12.409973l4.432159,-15.955688l-0.886444,-36.343475l-7.0914,-49.639893l-15.069244,-36.343475l-17.728546,-22.160645l-22.160645,-10.637115l-16.842102,-2.659302l-16.842102,11.52356l-25.70639,15.069244l-33.684189,10.637115l-27.479218,3.545715l-23.047089,-1.772858l-26.592789,-7.977844l-27.479218,-12.409973l-17.728531,-13.296387l-11.257576,-4.234924z" stroke-width="null" fill="#ffffff"/>
 </g>
</svg>